<svg xmlns="http://www.w3.org/2000/svg" width="1000" height="1090" viewBox="0 0 1000 1090" role="img" aria-labelledby="title desc"><title id="title">原神 · 两种环境反馈共用布局，分别更新</title><desc id="desc">角色先读已有结果；后面的采样与汇总产生供之后使用的新结果</desc><defs><marker id="arrow" viewBox="0 0 10 10" refX="9" refY="5" markerWidth="8" markerHeight="8" orient="auto-start-reverse"><path d="M 0 0 L 10 5 L 0 10 z" fill="#61748c"/></marker></defs><rect width="1000" height="1090" fill="#fff"/><g font-family="'Microsoft YaHei','Noto Sans CJK SC','PingFang SC',sans-serif"><text x="30" y="42" fill="#24364d" font-size="29" text-anchor="start">原神 · 两种环境反馈共用布局，分别更新</text><text x="30" y="78" fill="#63738b" font-size="18" text-anchor="start">角色先读已有结果；后面的采样与汇总产生供之后使用的新结果</text><text x="35" y="126" fill="#24364d" font-size="20" text-anchor="start">颜色：10 列</text><text x="360" y="126" fill="#24364d" font-size="20" text-anchor="start">阴影：60 列</text><rect x="35" y="145" width="130" height="165" fill="#edf5ff" stroke="#2166a8"/><rect x="165" y="145" width="780" height="165" fill="#fff4e4" stroke="#b86518"/><path d="M48 145 V310" stroke="#9caabe" stroke-width=".6"/><path d="M61 145 V310" stroke="#9caabe" stroke-width=".6"/><path d="M74 145 V310" stroke="#9caabe" stroke-width=".6"/><path d="M87 145 V310" stroke="#9caabe" stroke-width=".6"/><path d="M100 145 V310" stroke="#9caabe" stroke-width=".6"/><path d="M113 145 V310" stroke="#9caabe" stroke-width=".6"/><path d="M126 145 V310" stroke="#9caabe" stroke-width=".6"/><path d="M139 145 V310" stroke="#9caabe" stroke-width=".6"/><path d="M152 145 V310" stroke="#9caabe" stroke-width=".6"/><path d="M165 145 V310" stroke="#9caabe" stroke-width=".6"/><path d="M178 145 V310" stroke="#9caabe" stroke-width=".6"/><path d="M191 145 V310" stroke="#9caabe" stroke-width=".6"/><path d="M204 145 V310" stroke="#9caabe" stroke-width=".6"/><path d="M217 145 V310" stroke="#9caabe" stroke-width=".6"/><path d="M230 145 V310" stroke="#9caabe" stroke-width=".6"/><path d="M243 145 V310" stroke="#9caabe" stroke-width=".6"/><path d="M256 145 V310" stroke="#9caabe" stroke-width=".6"/><path d="M269 145 V310" stroke="#9caabe" stroke-width=".6"/><path d="M282 145 V310" stroke="#9caabe" stroke-width=".6"/><path d="M295 145 V310" stroke="#9caabe" stroke-width=".6"/><path d="M308 145 V310" stroke="#9caabe" stroke-width=".6"/><path d="M321 145 V310" stroke="#9caabe" stroke-width=".6"/><path d="M334 145 V310" stroke="#9caabe" stroke-width=".6"/><path d="M347 145 V310" stroke="#9caabe" stroke-width=".6"/><path d="M360 145 V310" stroke="#9caabe" stroke-width=".6"/><path d="M373 145 V310" stroke="#9caabe" stroke-width=".6"/><path d="M386 145 V310" stroke="#9caabe" stroke-width=".6"/><path d="M399 145 V310" stroke="#9caabe" stroke-width=".6"/><path d="M412 145 V310" stroke="#9caabe" stroke-width=".6"/><path d="M425 145 V310" stroke="#9caabe" stroke-width=".6"/><path d="M438 145 V310" stroke="#9caabe" stroke-width=".6"/><path d="M451 145 V310" stroke="#9caabe" stroke-width=".6"/><path d="M464 145 V310" stroke="#9caabe" stroke-width=".6"/><path d="M477 145 V310" stroke="#9caabe" stroke-width=".6"/><path d="M490 145 V310" stroke="#9caabe" stroke-width=".6"/><path d="M503 145 V310" stroke="#9caabe" stroke-width=".6"/><path d="M516 145 V310" stroke="#9caabe" stroke-width=".6"/><path d="M529 145 V310" stroke="#9caabe" stroke-width=".6"/><path d="M542 145 V310" stroke="#9caabe" stroke-width=".6"/><path d="M555 145 V310" stroke="#9caabe" stroke-width=".6"/><path d="M568 145 V310" stroke="#9caabe" stroke-width=".6"/><path d="M581 145 V310" stroke="#9caabe" stroke-width=".6"/><path d="M594 145 V310" stroke="#9caabe" stroke-width=".6"/><path d="M607 145 V310" stroke="#9caabe" stroke-width=".6"/><path d="M620 145 V310" stroke="#9caabe" stroke-width=".6"/><path d="M633 145 V310" stroke="#9caabe" stroke-width=".6"/><path d="M646 145 V310" stroke="#9caabe" stroke-width=".6"/><path d="M659 145 V310" stroke="#9caabe" stroke-width=".6"/><path d="M672 145 V310" stroke="#9caabe" stroke-width=".6"/><path d="M685 145 V310" stroke="#9caabe" stroke-width=".6"/><path d="M698 145 V310" stroke="#9caabe" stroke-width=".6"/><path d="M711 145 V310" stroke="#9caabe" stroke-width=".6"/><path d="M724 145 V310" stroke="#9caabe" stroke-width=".6"/><path d="M737 145 V310" stroke="#9caabe" stroke-width=".6"/><path d="M750 145 V310" stroke="#9caabe" stroke-width=".6"/><path d="M763 145 V310" stroke="#9caabe" stroke-width=".6"/><path d="M776 145 V310" stroke="#9caabe" stroke-width=".6"/><path d="M789 145 V310" stroke="#9caabe" stroke-width=".6"/><path d="M802 145 V310" stroke="#9caabe" stroke-width=".6"/><path d="M815 145 V310" stroke="#9caabe" stroke-width=".6"/><path d="M828 145 V310" stroke="#9caabe" stroke-width=".6"/><path d="M841 145 V310" stroke="#9caabe" stroke-width=".6"/><path d="M854 145 V310" stroke="#9caabe" stroke-width=".6"/><path d="M867 145 V310" stroke="#9caabe" stroke-width=".6"/><path d="M880 145 V310" stroke="#9caabe" stroke-width=".6"/><path d="M893 145 V310" stroke="#9caabe" stroke-width=".6"/><path d="M906 145 V310" stroke="#9caabe" stroke-width=".6"/><path d="M919 145 V310" stroke="#9caabe" stroke-width=".6"/><path d="M932 145 V310" stroke="#9caabe" stroke-width=".6"/><path d="M35 178 H945" stroke="#9caabe" stroke-width=".7"/><path d="M35 211 H945" stroke="#9caabe" stroke-width=".7"/><path d="M35 244 H945" stroke="#9caabe" stroke-width=".7"/><path d="M35 277 H945" stroke="#9caabe" stroke-width=".7"/><text x="35" y="345" fill="#24364d" font-size="21" text-anchor="start">70 × 5：每列五个空间样本。颜色去主视图；阴影去光源覆盖层。</text><rect x="30" y="395" width="450" height="150" rx="12" fill="#edf5ff" stroke="#2166a8" stroke-width="1.7"/><text x="50" y="425" fill="#2166a8" font-size="23" text-anchor="start">颜色侧：有效样本均值</text><text x="50" y="452" fill="#24364d" font-size="20" text-anchor="start">排除无效位置与特定材质类别</text><text x="50" y="477" fill="#24364d" font-size="20" text-anchor="start">新值 = 0.9 × 旧值 + 0.1 × 均值</text><text x="50" y="502" fill="#24364d" font-size="20" text-anchor="start">无有效样本时保留旧颜色</text><rect x="520" y="395" width="450" height="150" rx="12" fill="#fff4e4" stroke="#b86518" stroke-width="1.7"/><text x="540" y="425" fill="#b86518" font-size="23" text-anchor="start">阴影侧：遮挡驱动状态变化</text><text x="540" y="452" fill="#24364d" font-size="20" text-anchor="start">样本保存 1 − 阴影通过率</text><text x="540" y="477" fill="#24364d" font-size="20" text-anchor="start">主结果 a + 有记忆的偏差 b</text><text x="540" y="502" fill="#24364d" font-size="20" text-anchor="start">非线性更新；特殊控制可强制覆盖</text><path d="M255,545 L255,580" fill="none" stroke="#61748c" stroke-width="2.5" marker-end="url(#arrow)"/><path d="M745,545 L745,580" fill="none" stroke="#61748c" stroke-width="2.5" marker-end="url(#arrow)"/><rect x="30" y="585" width="940" height="94" rx="12" fill="#eaf7f0" stroke="#287e59" stroke-width="1.7"/><text x="50" y="615" fill="#287e59" font-size="23" text-anchor="start">70 × 1：分别保存新颜色与新阴影状态</text><text x="50" y="642" fill="#24364d" font-size="20" text-anchor="start">颜色和阴影保持原有分区，数值含义不互换</text><text x="50" y="667" fill="#24364d" font-size="20" text-anchor="start">槽位是任务布局，不能把 70 列解释成 70 个角色</text><rect x="30" y="735" width="450" height="122" rx="12" fill="#f3eefb" stroke="#7055a1" stroke-width="1.7"/><text x="50" y="765" fill="#7055a1" font-size="23" text-anchor="start">本次角色材质</text><text x="50" y="792" fill="#24364d" font-size="20" text-anchor="start">读取已有反馈</text><text x="50" y="817" fill="#24364d" font-size="20" text-anchor="start">身体、脸部、裙装、眼睛选择性使用</text><rect x="520" y="735" width="450" height="122" rx="12" fill="#edf5ff" stroke="#2166a8" stroke-width="1.7"/><text x="540" y="765" fill="#2166a8" font-size="23" text-anchor="start">本次后续取样与汇总</text><text x="540" y="792" fill="#24364d" font-size="20" text-anchor="start">使用场景材质颜色和阴影</text><text x="540" y="817" fill="#24364d" font-size="20" text-anchor="start">更新上面的两类反馈</text><path d="M480,796 L514,796" fill="none" stroke="#61748c" stroke-width="2.5" marker-end="url(#arrow)"/><path d="M745 735 L745 698" fill="none" stroke="#61748c" stroke-width="2.5" marker-end="url(#arrow)"/><path d="M500 679 L500 920 L255 920 L255 865" fill="none" stroke="#61748c" stroke-width="2.5" marker-end="url(#arrow)"/><text x="530" y="923" fill="#24364d" font-size="20" text-anchor="start">跨次使用的依赖</text><path d="M500 679 L500 920 L255 920 L255 865" fill="none" stroke="#fff" stroke-width="4"/><path d="M500 679 L500 920 L255 920 L255 865" fill="none" stroke="#61748c" stroke-width="2.5" stroke-dasharray="8 6" marker-end="url(#arrow)"/><text x="30" y="1015" fill="#24364d" font-size="18" text-anchor="start">本图表示读写先后，不把单帧可见的关系扩大成已验证的更新频率或槽位交换策略。</text><text x="30" y="1070" fill="#758399" font-size="17" text-anchor="start">依据截帧程序重绘的算法示意 · astra</text></g></svg>
